{
  "asset": { "version": "2.0", "generator": "NGE Test" },
  "scene": 0,
  "scenes": [{ "nodes": [0] }],
  "nodes": [{ "mesh": 0, "translation": [0, 0, 0] }],
  "meshes": [{
    "primitives": [{
      "attributes": { "POSITION": 0, "NORMAL": 1, "TEXCOORD_0": 2 },
      "indices": 3,
      "material": 0
    }]
  }],
  "materials": [{
    "pbrMetallicRoughness": {
      "baseColorFactor": [0.8, 0.2, 0.2, 1.0],
      "metallicFactor": 0.1,
      "roughnessFactor": 0.5
    },
    "doubleSided": true
  }],
  "buffers": [{
    "uri": "data:application/octet-stream;base64,",
    "byteLength": 102
  }],
  "bufferViews": [
    { "buffer": 0, "byteOffset": 0, "byteLength": 36, "byteStride": 12 },
    { "buffer": 0, "byteOffset": 36, "byteLength": 36, "byteStride": 12 },
    { "buffer": 0, "byteOffset": 72, "byteLength": 24, "byteStride": 8 },
    { "buffer": 0, "byteOffset": 96, "byteLength": 6 }
  ],
  "accessors": [
    { "bufferView": 0, "componentType": 5126, "count": 3, "type": "VEC3", "max": [0,0,0], "min": [0,0,0] },
    { "bufferView": 1, "componentType": 5126, "count": 3, "type": "VEC3" },
    { "bufferView": 2, "componentType": 5126, "count": 3, "type": "VEC2" },
    { "bufferView": 3, "componentType": 5123, "count": 3, "type": "SCALAR" }
  ]
}
